<svg width="20" height="20" viewBox="0 0 20 20" fill="none" xmlns="http://www.w3.org/2000/svg">
<rect width="20" height="20" fill="#F2F2F2"/>
<g id="Home Page" clip-path="url(#clip0_0_1)">
<rect width="1920" height="1200" transform="translate(-1746 -22)" fill="white"/>
<g id="Icons">
<g id="ui-11">
<path id="Combined-Shape" opacity="0.24" fill-rule="evenodd" clip-rule="evenodd" d="M-4.33073 29.4545C-6.35618 29.4545 -8 27.8655 -8 25.9091C-8 24.6106 -7.27288 23.4532 -6.16151 22.835C-6.16151 22.4764 -6.16667 18.2256 -6.16667 18.2256C-6.16667 14.1418 -3.33148 10.7037 0.555555 9.6765V9.36364C0.555555 8.05824 1.64997 7 3 7C4.35003 7 5.44444 8.05824 5.44444 9.36364V9.6765C9.33232 10.7034 12.1667 14.1419 12.1667 18.2318V22.8454C13.2793 23.4664 14 24.619 14 25.9091C14 27.8681 12.3586 29.4545 10.3307 29.4545H6.66667C6.6646 31.413 5.01965 33 3 33C0.974957 33 -0.666667 31.4143 -0.666667 29.4571L-4.33073 29.4545ZM1.77778 29.4545C1.77778 30.1083 2.32437 30.6364 3 30.6364C3.67091 30.6364 4.22015 30.1064 4.22222 29.4545H1.77778ZM9.72222 18.2318V23.9427C9.72222 24.2702 9.99219 24.6032 10.3181 24.6847L10.6385 24.7648C11.1733 24.8984 11.5556 25.3689 11.5556 25.9091C11.5556 26.5624 11.0088 27.0909 10.3307 27.0909H-4.33073C-5.00631 27.0909 -5.55556 26.56 -5.55556 25.9091C-5.55556 25.3666 -5.17483 24.8979 -4.63974 24.7647L-4.30849 24.6823C-3.9847 24.6017 -3.72222 24.2732 -3.72222 23.9426V18.2256C-3.72222 14.6364 -0.713249 11.7273 3 11.7273C6.71476 11.7273 9.72222 14.6354 9.72222 18.2318Z" fill="black"/>
</g>
<path id="Oval" d="M10 19C14.9706 19 19 14.9706 19 10C19 5.02944 14.9706 1 10 1C5.02944 1 1 5.02944 1 10C1 14.9706 5.02944 19 10 19Z" fill="#FF0000" stroke="white"/>
<path id="3" d="M11.92 9.608C12.424 9.744 12.808 9.992 13.072 10.352C13.344 10.712 13.48 11.156 13.48 11.684C13.48 12.428 13.204 13.016 12.652 13.448C12.108 13.88 11.372 14.096 10.444 14.096C9.868 14.096 9.312 14.008 8.776 13.832C8.248 13.656 7.812 13.412 7.468 13.1L7.996 11.972C8.756 12.564 9.552 12.86 10.384 12.86C10.928 12.86 11.332 12.752 11.596 12.536C11.868 12.32 12.004 11.992 12.004 11.552C12.004 11.12 11.868 10.804 11.596 10.604C11.324 10.396 10.904 10.292 10.336 10.292H9.208V9.056H10.132C11.236 9.056 11.788 8.636 11.788 7.796C11.788 7.404 11.668 7.104 11.428 6.896C11.188 6.688 10.852 6.584 10.42 6.584C9.652 6.584 8.884 6.88 8.116 7.472L7.6 6.344C7.944 6.04 8.376 5.8 8.896 5.624C9.424 5.44 9.964 5.348 10.516 5.348C11.356 5.348 12.024 5.556 12.52 5.972C13.024 6.38 13.276 6.928 13.276 7.616C13.268 8.088 13.144 8.5 12.904 8.852C12.672 9.196 12.344 9.448 11.92 9.608Z" fill="white"/>
</g>
</g>
<defs>
<clipPath id="clip0_0_1">
<rect width="1920" height="1200" fill="white" transform="translate(-1746 -22)"/>
</clipPath>
</defs>
</svg>
